<svg width="18" height="19" viewBox="0 0 18 19" fill="none" xmlns="http://www.w3.org/2000/svg">
<path d="M9.0375 8.72H6.6975C6.38684 8.72 6.135 8.46816 6.135 8.1575C6.135 7.84684 6.38684 7.595 6.6975 7.595H9.0375C9.34816 7.595 9.6 7.84684 9.6 8.1575C9.6 8.46816 9.34816 8.72 9.0375 8.72Z" fill="#343434"/>
<path d="M6.6975 9.9275H11.3025C11.6132 9.9275 11.865 10.1793 11.865 10.49C11.865 10.8007 11.6132 11.0525 11.3025 11.0525H6.6975C6.38684 11.0525 6.135 10.8007 6.135 10.49C6.135 10.1793 6.38684 9.9275 6.6975 9.9275Z" fill="#343434"/>
<path d="M10.6725 12.125H6.6975C6.38684 12.125 6.135 12.3768 6.135 12.6875C6.135 12.9982 6.38684 13.25 6.6975 13.25H10.6725C10.9832 13.25 11.235 12.9982 11.235 12.6875C11.235 12.3768 10.9832 12.125 10.6725 12.125Z" fill="#343434"/>
<path fill-rule="evenodd" clip-rule="evenodd" d="M10.7025 2C11.3094 1.99916 11.8106 2.47395 11.8425 3.08C13.6237 3.28028 14.9772 4.77524 15 6.5675V14.135C14.9959 16.1008 13.4033 17.6934 11.4375 17.6975H6.5625C4.5967 17.6934 3.00413 16.1008 3 14.135V6.5675C3.02281 4.77524 4.37631 3.28028 6.1575 3.08C6.19311 2.47564 6.6921 2.00291 7.2975 2H10.7025ZM10.7175 3.08H7.2975V3.9725H10.7175V3.08ZM13.875 14.135C13.875 15.4824 12.7849 16.5759 11.4375 16.58H6.5625C5.21509 16.5759 4.12499 15.4824 4.125 14.135V6.5675C4.12798 5.37416 4.99452 4.35844 6.1725 4.1675C6.26457 4.71602 6.74132 5.11649 7.2975 5.1125H10.7025C11.2587 5.11649 11.7354 4.71602 11.8275 4.1675C13.0055 4.35844 13.872 5.37416 13.875 6.5675V14.135Z" fill="#343434"/>
</svg>
