<svg width="18" height="18" viewBox="0 0 18 18" fill="none" xmlns="http://www.w3.org/2000/svg">
<path fill-rule="evenodd" clip-rule="evenodd" d="M3 5.625C3 4.17525 4.17525 3 5.625 3C7.07475 3 8.25 4.17525 8.25 5.625C8.25 7.07475 7.07475 8.25 5.625 8.25C4.17525 8.25 3 7.07475 3 5.625ZM7.125 5.625C7.125 4.79657 6.45343 4.125 5.625 4.125C4.79657 4.125 4.125 4.79657 4.125 5.625C4.125 6.45343 4.79657 7.125 5.625 7.125C6.45343 7.125 7.125 6.45343 7.125 5.625Z" fill="#343434"/>
<path fill-rule="evenodd" clip-rule="evenodd" d="M10.5 5.625C10.5 4.17525 11.6753 3 13.125 3C14.5747 3 15.75 4.17525 15.75 5.625C15.75 7.07475 14.5747 8.25 13.125 8.25C11.6753 8.25 10.5 7.07475 10.5 5.625ZM14.625 5.625C14.625 4.79657 13.9534 4.125 13.125 4.125C12.2966 4.125 11.625 4.79657 11.625 5.625C11.625 6.45343 12.2966 7.125 13.125 7.125C13.9534 7.125 14.625 6.45343 14.625 5.625Z" fill="#343434"/>
<path fill-rule="evenodd" clip-rule="evenodd" d="M3 13.125C3 11.6753 4.17525 10.5 5.625 10.5C7.07475 10.5 8.25 11.6753 8.25 13.125C8.25 14.5747 7.07475 15.75 5.625 15.75C4.17525 15.75 3 14.5747 3 13.125ZM7.125 13.125C7.125 12.2966 6.45343 11.625 5.625 11.625C4.79657 11.625 4.125 12.2966 4.125 13.125C4.125 13.9534 4.79657 14.625 5.625 14.625C6.45343 14.625 7.125 13.9534 7.125 13.125Z" fill="#343434"/>
<path fill-rule="evenodd" clip-rule="evenodd" d="M10.5 13.125C10.5 11.6753 11.6753 10.5 13.125 10.5C14.5747 10.5 15.75 11.6753 15.75 13.125C15.75 14.5747 14.5747 15.75 13.125 15.75C11.6753 15.75 10.5 14.5747 10.5 13.125ZM14.625 13.125C14.625 12.2966 13.9534 11.625 13.125 11.625C12.2966 11.625 11.625 12.2966 11.625 13.125C11.625 13.9534 12.2966 14.625 13.125 14.625C13.9534 14.625 14.625 13.9534 14.625 13.125Z" fill="#343434"/>
</svg>
