<svg width="18" height="18" viewBox="0 0 18 18" fill="none" xmlns="http://www.w3.org/2000/svg">
<path d="M8.91001 5.60268C8.27627 5.60268 7.76251 6.11644 7.76251 6.75019C7.76251 7.38393 8.27627 7.89769 8.91001 7.89769C9.54376 7.89769 10.0575 7.38393 10.0575 6.75019C10.0534 6.11814 9.54206 5.60678 8.91001 5.60268Z" fill="#343434"/>
<path d="M8.34752 9.18769C8.35155 8.87871 8.60104 8.62922 8.91002 8.62519C9.21899 8.62922 9.46848 8.87871 9.47252 9.18769V10.5002C9.47252 10.8108 9.22068 11.0627 8.91002 11.0627C8.59936 11.0627 8.34752 10.8108 8.34752 10.5002V9.18769Z" fill="#343434"/>
<path fill-rule="evenodd" clip-rule="evenodd" d="M13.245 10.5527L14.82 11.0777C15.2568 11.2285 15.5532 11.6357 15.5625 12.0977V15.0977C15.5625 15.8723 14.9346 16.5002 14.16 16.5002C14.0093 16.5003 13.8597 16.475 13.7175 16.4252L12.9675 16.1702C12.7531 16.3849 12.461 16.5039 12.1575 16.5002H11.0175C10.487 16.5303 10.03 16.1301 9.99001 15.6002V13.6427C9.94992 13.0838 9.4695 12.6601 8.91001 12.6902C8.35053 12.6601 7.8701 13.0838 7.83001 13.6427V15.6002C7.78999 16.1301 7.33304 16.5303 6.80251 16.5002H5.66251C5.35905 16.5039 5.06695 16.3849 4.85251 16.1702L4.10251 16.4252C3.9603 16.475 3.81069 16.5003 3.66001 16.5002C2.89409 16.5045 2.26639 15.8934 2.25001 15.1277V12.1277C2.2477 11.6527 2.54991 11.2296 3.00001 11.0777L4.57501 10.5527V8.16769C4.62847 5.52414 6.01375 3.08651 8.25751 1.68769C8.45243 1.56368 8.679 1.49857 8.91001 1.50019C9.1412 1.49727 9.36814 1.56248 9.56251 1.68769C11.8063 3.08651 13.1916 5.52414 13.245 8.16769V10.5527ZM3.73501 15.3602L3.97501 15.2777L3.99751 11.9402L3.38251 12.1427V15.0977C3.38251 15.2509 3.50675 15.3752 3.66001 15.3752L3.73501 15.3602ZM12.045 15.2777H11.16V13.6427C11.1078 12.4383 10.1156 11.4891 8.91001 11.4902C7.70447 11.4891 6.71225 12.4383 6.66001 13.6427V15.3002H5.77501V8.16769C5.83698 5.93477 7.01423 3.88162 8.91001 2.70019C10.8108 3.8813 11.9914 5.93812 12.0525 8.17519L12.045 15.2777ZM14.175 15.3527C14.3283 15.3527 14.4525 15.2284 14.4525 15.0752V12.1277L13.845 11.9252V15.2702L14.085 15.3527H14.175Z" fill="#343434"/>
</svg>
