<svg width="16" height="16" viewBox="0 0 16 16" fill="none" xmlns="http://www.w3.org/2000/svg">
<path fill-rule="evenodd" clip-rule="evenodd" d="M13.5268 4.66697L9.82016 1.92697C8.73592 1.13543 7.2644 1.13543 6.18016 1.92697L2.48016 4.66697C1.76379 5.18306 1.33756 6.01073 1.3335 6.89363V11.847C1.37351 13.4425 2.69793 14.7042 4.2935 14.667H11.7068C13.3024 14.7042 14.6268 13.4425 14.6668 11.847V6.88697C14.6611 6.00788 14.238 5.18382 13.5268 4.66697ZM13.6668 11.847C13.6271 12.8903 12.7502 13.7045 11.7068 13.667H4.2935C3.25148 13.7008 2.37684 12.8886 2.3335 11.847V6.89363C2.33705 6.32691 2.61228 5.7963 3.0735 5.46697L6.7735 2.73363C7.50423 2.20002 8.4961 2.20002 9.22683 2.73363L12.9268 5.47363C13.3877 5.79725 13.6634 6.32387 13.6668 6.88697V11.847ZM5.00016 10.5003H11.0002C11.2763 10.5003 11.5002 10.7242 11.5002 11.0003C11.5002 11.2764 11.2763 11.5003 11.0002 11.5003H5.00016C4.72402 11.5003 4.50016 11.2764 4.50016 11.0003C4.50016 10.7242 4.72402 10.5003 5.00016 10.5003Z" fill="black"/>
</svg>
