<svg width="18" height="18" viewBox="0 0 18 18" fill="none" xmlns="http://www.w3.org/2000/svg">
<path fill-rule="evenodd" clip-rule="evenodd" d="M16.1751 4.12708C16.1751 3.09154 15.3356 2.25208 14.3001 2.25208H3.45511C2.50364 2.20749 1.67109 2.88612 1.52292 3.82704C1.37476 4.76796 1.95848 5.66961 2.87761 5.91958V12.6696C2.8776 14.0584 4.00128 15.1854 5.39011 15.1896H12.3501C13.0198 15.1916 13.6627 14.9269 14.1369 14.4541C14.6111 13.9813 14.8776 13.3392 14.8776 12.6696V5.91958C15.6556 5.67023 16.1813 4.94407 16.1751 4.12708ZM12.3576 14.0571H5.39761C5.02962 14.0571 4.6767 13.9109 4.4165 13.6507C4.15629 13.3905 4.01011 13.0376 4.01011 12.6696V6.00208H13.7601V12.6696C13.7601 13.0402 13.6119 13.3954 13.3484 13.656C13.085 13.9167 12.7282 14.0611 12.3576 14.0571ZM3.45511 4.87708H14.3001C14.7143 4.87708 15.0501 4.54129 15.0501 4.12708C15.0501 3.71286 14.7143 3.37708 14.3001 3.37708H3.45511C3.0409 3.37708 2.70511 3.71286 2.70511 4.12708C2.70511 4.54129 3.0409 4.87708 3.45511 4.87708Z" fill="#343434"/>
<path d="M10.5651 7.97458H7.19011C6.87945 7.97458 6.62761 8.22641 6.62761 8.53708C6.62761 8.84774 6.87945 9.09958 7.19011 9.09958H10.5651C10.8758 9.09958 11.1276 8.84774 11.1276 8.53708C11.1276 8.22641 10.8758 7.97458 10.5651 7.97458Z" fill="#343434"/>
</svg>
