<svg width="18" height="18" viewBox="0 0 18 18" fill="none" xmlns="http://www.w3.org/2000/svg">
<path fill-rule="evenodd" clip-rule="evenodd" d="M15.7125 6.8325C16.2681 6.8312 16.7789 7.1371 17.04 7.6275C17.3112 8.1079 17.2968 8.69839 17.0025 9.165L13.575 14.3025C13.2187 14.8781 12.521 15.1437 11.8721 14.9508C11.2232 14.7579 10.784 14.1543 10.8 13.4775V11.34H9.195C8.65804 11.3421 8.16089 11.0571 7.89149 10.5926C7.62208 10.1281 7.62151 9.55503 7.89 9.09L11.37 3C11.6377 2.53637 12.1322 2.25055 12.6675 2.25C13.4959 2.25 14.1675 2.92157 14.1675 3.75V6.8325H15.7125ZM12.6 13.68L16.0275 8.5425C16.1145 8.4267 16.1271 8.27113 16.0598 8.14288C15.9924 8.01462 15.8572 7.93662 15.7125 7.9425H13.7925C13.3783 7.9425 13.0425 7.60671 13.0425 7.1925V3.735C13.0425 3.63423 13.002 3.53769 12.93 3.46715C12.8581 3.3966 12.7608 3.35798 12.66 3.36C12.5227 3.36047 12.3976 3.43901 12.3375 3.5625L8.8575 9.6525C8.79384 9.76884 8.79637 9.91016 8.86415 10.0242C8.93193 10.1381 9.05488 10.2079 9.1875 10.2075H11.1675C11.5817 10.2075 11.9175 10.5433 11.9175 10.9575V13.47C11.9195 13.6329 12.0265 13.7759 12.1822 13.8238C12.3379 13.8717 12.5068 13.8136 12.6 13.68Z" fill="#343434"/>
<path d="M6.5625 4.3875H2.9625C2.65184 4.3875 2.4 4.63934 2.4 4.95C2.4 5.26066 2.65184 5.5125 2.9625 5.5125H6.5625C6.87316 5.5125 7.125 5.26066 7.125 4.95C7.125 4.63934 6.87316 4.3875 6.5625 4.3875Z" fill="#343434"/>
<path d="M6.225 8.4975C6.22096 8.18853 5.97147 7.93904 5.6625 7.935H2.0625C1.75184 7.935 1.5 8.18684 1.5 8.4975C1.5 8.80816 1.75184 9.06 2.0625 9.06H5.6625C5.81168 9.06 5.95476 9.00074 6.06025 8.89525C6.16574 8.78976 6.225 8.64668 6.225 8.4975Z" fill="#343434"/>
<path d="M6.5625 12.2625H2.9625C2.65184 12.2625 2.4 12.5143 2.4 12.825C2.4 13.1357 2.65184 13.3875 2.9625 13.3875H6.5625C6.87316 13.3875 7.125 13.1357 7.125 12.825C7.125 12.5143 6.87316 12.2625 6.5625 12.2625Z" fill="#343434"/>
</svg>
