<svg width="18" height="19" viewBox="0 0 18 19" fill="none" xmlns="http://www.w3.org/2000/svg">
<path fill-rule="evenodd" clip-rule="evenodd" d="M12 7.06999C11.9755 8.29503 10.9753 9.27524 9.75004 9.27499C8.53937 9.25505 7.56159 8.28059 7.53754 7.06999V6.22249C7.53739 5.72328 7.73873 5.24514 8.09594 4.89641C8.45314 4.54767 8.93598 4.35787 9.43504 4.36999H10.14C10.6327 4.368 11.1058 4.56229 11.4548 4.90992C11.8038 5.25755 12 5.72988 12 6.22249V7.06999ZM9.41254 5.47249C8.99833 5.47249 8.66254 5.80828 8.66254 6.22249L8.69254 7.06999C8.69254 7.6706 9.17943 8.15749 9.78004 8.15749C10.3806 8.15749 10.8675 7.6706 10.8675 7.06999V6.22249C10.8675 5.80828 10.5318 5.47249 10.1175 5.47249H9.41254Z" fill="#343434"/>
<path fill-rule="evenodd" clip-rule="evenodd" d="M17.61 11.975L17.6925 13.145C17.7792 13.5112 17.6946 13.8969 17.4626 14.1931C17.2305 14.4894 16.8763 14.6639 16.5 14.6675H13.1325C12.8388 14.9806 12.4294 15.1596 12 15.1625H7.50004C7.04898 15.1685 6.61718 14.98 6.31504 14.645C6.24526 14.6527 6.17483 14.6527 6.10504 14.645H2.66254C2.29652 14.6312 1.95542 14.4559 1.73105 14.1664C1.50668 13.8769 1.42209 13.5029 1.50004 13.145L1.61254 11.975C1.72198 11.4167 2.20625 11.0106 2.77504 11H6.00004C6.13466 10.9925 6.26948 11.0103 6.39754 11.0525C6.68528 10.6931 7.12215 10.4857 7.58254 10.49H11.9175C12.351 10.4884 12.764 10.6743 13.05 11C13.1023 10.9926 13.1553 10.9926 13.2075 11H16.4475C17.0163 11.0106 17.5006 11.4167 17.61 11.975ZM13.1625 13.52H16.56C16.583 13.4758 16.5857 13.4238 16.5675 13.3775V13.2275L16.4925 12.1625L16.4475 12.1025H13.05C12.733 12.1036 12.4303 11.97 12.2175 11.735C12.1431 11.646 12.0335 11.5939 11.9175 11.5925H7.58255C7.4569 11.5941 7.33857 11.6519 7.26005 11.75C7.04595 12.0041 6.72985 12.1498 6.39754 12.1475C6.26147 12.1481 6.12654 12.1227 6.00004 12.0725H2.81254C2.76754 12.0725 2.76754 12.0875 2.76754 12.1325L2.69254 13.1975V13.3475C2.67201 13.3928 2.67201 13.4447 2.69254 13.49H6.13505C6.21488 13.4827 6.29521 13.4827 6.37504 13.49C6.67984 13.4957 6.96827 13.629 7.17004 13.8575C7.2528 13.9543 7.37271 14.0116 7.50004 14.015H12.03C12.1576 14.0125 12.2779 13.9551 12.36 13.8575C12.5709 13.6411 12.8604 13.5194 13.1625 13.52Z" fill="#343434"/>
<path fill-rule="evenodd" clip-rule="evenodd" d="M16.4775 8.19499C16.4775 9.10626 15.7388 9.84499 14.8275 9.84499C14.3886 9.84699 13.967 9.67403 13.656 9.36438C13.3449 9.05473 13.17 8.6339 13.17 8.19499V7.56499C13.17 7.19701 13.3162 6.84409 13.5764 6.58388C13.8366 6.32368 14.1896 6.17749 14.5575 6.17749H15.09C15.8563 6.17749 16.4775 6.7987 16.4775 7.56499V8.19499ZM14.3719 7.40938C14.3227 7.45861 14.295 7.52537 14.295 7.59499V8.22499C14.327 8.49278 14.5541 8.69441 14.8238 8.69441C15.0935 8.69441 15.3206 8.49278 15.3525 8.22499V7.59499C15.3525 7.45002 15.235 7.33249 15.09 7.33249H14.5575C14.4879 7.33249 14.4212 7.36015 14.3719 7.40938Z" fill="#343434"/>
<path fill-rule="evenodd" clip-rule="evenodd" d="M5.56662 9.36438C5.25556 9.67403 4.83395 9.84699 4.39504 9.84499C3.95744 9.84499 3.53775 9.67115 3.22832 9.36172C2.91888 9.05228 2.74504 8.6326 2.74504 8.19499V7.56499C2.74504 6.7987 3.36625 6.17749 4.13254 6.17749H4.66504C5.43134 6.17749 6.05254 6.7987 6.05254 7.56499V8.19499C6.05255 8.6339 5.87768 9.05473 5.56662 9.36438ZM4.13254 7.33249C3.98757 7.33249 3.87004 7.45002 3.87004 7.59499V8.22499C3.90199 8.49278 4.1291 8.69441 4.39879 8.69441C4.66848 8.69441 4.89559 8.49278 4.92754 8.22499V7.59499C4.92754 7.45002 4.81002 7.33249 4.66504 7.33249H4.13254Z" fill="#343434"/>
</svg>
