<svg width="18" height="19" viewBox="0 0 18 19" fill="none" xmlns="http://www.w3.org/2000/svg">
<path fill-rule="evenodd" clip-rule="evenodd" d="M14.6849 13.0325L14.865 13.8875C15.0355 14.6267 14.8671 15.4034 14.4057 16.0056C13.9443 16.6078 13.2381 16.9724 12.4799 17H5.51995C4.76183 16.9724 4.05562 16.6078 3.59421 16.0056C3.13279 15.4034 2.96437 14.6267 3.13495 13.8875L3.31495 13.0325C3.52198 11.8751 4.51692 11.0245 5.69245 11H12.3075C13.483 11.0245 14.4779 11.8751 14.6849 13.0325ZM12.4799 15.8675C12.8608 15.8631 13.2192 15.6866 13.455 15.3875V15.395C13.7442 15.0321 13.8569 14.5593 13.7625 14.105L13.5825 13.25C13.4826 12.6164 12.9484 12.1419 12.3075 12.1175H5.69245C5.05147 12.1419 4.51732 12.6164 4.41745 13.25L4.23745 14.105C4.14532 14.5569 4.2579 15.0265 4.54495 15.3875C4.7807 15.6866 5.13911 15.8631 5.51995 15.8675H12.4799Z" fill="#343434"/>
<path fill-rule="evenodd" clip-rule="evenodd" d="M9.37494 9.49998H8.62494C6.96808 9.49998 5.62494 8.15683 5.62494 6.49998V4.51998C5.62294 3.85102 5.88779 3.20889 6.36082 2.73586C6.83385 2.26284 7.47598 1.99798 8.14494 1.99998H9.85494C10.5239 1.99798 11.166 2.26284 11.6391 2.73586C12.1121 3.20889 12.3769 3.85102 12.3749 4.51998V6.49998C12.3749 8.15683 11.0318 9.49998 9.37494 9.49998ZM8.14494 3.12498C7.3745 3.12498 6.74994 3.74954 6.74994 4.51998V6.49998C6.74994 7.53551 7.5894 8.37498 8.62494 8.37498H9.37494C10.4105 8.37498 11.2499 7.53551 11.2499 6.49998V4.51998C11.2499 4.15 11.103 3.79518 10.8414 3.53357C10.5797 3.27195 10.2249 3.12498 9.85494 3.12498H8.14494Z" fill="#343434"/>
</svg>
